<?xml version="1.0" encoding="utf-8"?>
<!DOCTYPE svg PUBLIC "-//W3C//DTD SVG 1.1//EN" "http://www.w3.org/Graphics/SVG/1.1/DTD/svg11.dtd">
<svg version="1.1" xmlns="http://www.w3.org/2000/svg" xmlns:xlink="http://www.w3.org/1999/xlink" x="0px" y="0px"
	 width="256px" height="256px" viewBox="0 0 256 256" enable-background="new 0 0 256 256" xml:space="preserve">
<path fill="#828282" d="M155.653,108.896c3.907-2.895,5.861-7.598,5.861-14.111c0-3.618-0.651-6.585-1.954-8.9
	c-1.303-2.316-3.039-4.125-5.209-5.427c-2.172-1.303-4.668-2.207-7.49-2.714c-2.822-0.506-5.753-0.76-8.792-0.76h-31.912v36.254
	h34.516C146.753,113.238,151.746,111.791,155.653,108.896z"/>
<path fill="#828282" d="M222.991,0H33.009C14.776,0,0,14.778,0,33.009v189.982C0,241.224,14.778,256,33.009,256h189.982
	C241.224,256,256,241.222,256,222.991V33.009C256,14.776,241.222,0,222.991,0z M197.334,180.861
	c-3.039,5.716-7.127,10.383-12.266,14.002c-5.138,3.617-10.998,6.295-17.584,8.031c-6.585,1.737-13.351,2.605-20.297,2.605H72.075
	v-155h72.941c7.381,0,14.111,0.651,20.189,1.954c6.078,1.303,11.289,3.438,15.631,6.404s7.706,6.911,10.094,11.831
	c2.389,4.921,3.582,10.999,3.582,18.235c0,7.815-1.772,14.328-5.318,19.538c-3.546,5.21-8.792,9.479-15.738,12.809
	c9.551,2.75,16.679,7.562,21.383,14.437c4.703,6.874,7.055,15.159,7.055,24.855C201.893,168.378,200.373,175.145,197.334,180.861z"
	/>
<path fill="#828282" d="M161.08,141.568c-4.486-3.401-10.42-5.102-17.801-5.102h-37.122v42.549h36.47
	c3.329,0,6.513-0.326,9.552-0.977c3.039-0.652,5.717-1.737,8.033-3.257c2.314-1.52,4.16-3.582,5.535-6.187
	c1.375-2.605,2.062-5.934,2.062-9.986C167.811,150.649,165.566,144.969,161.08,141.568z"/>
</svg>
