<?xml version="1.0" encoding="utf-8"?>
<!-- Generator: Adobe Illustrator 16.0.0, SVG Export Plug-In . SVG Version: 6.00 Build 0)  -->
<!DOCTYPE svg PUBLIC "-//W3C//DTD SVG 1.1//EN" "http://www.w3.org/Graphics/SVG/1.1/DTD/svg11.dtd">
<svg version="1.1" id="Calque_1" xmlns="http://www.w3.org/2000/svg" xmlns:xlink="http://www.w3.org/1999/xlink" x="0px" y="0px"
	 width="570px" height="570px" viewBox="0 -30 570 570" enable-background="new 0 -30 570 570" xml:space="preserve">
<path fill="#7C7C7C" d="M334.696,254.628c0,27.706-22.461,50.167-50.167,50.167c-27.706,0-50.167-22.461-50.167-50.167
	s22.461-50.167,50.167-50.167C312.235,204.461,334.696,226.922,334.696,254.628z"/>
<path fill="#7C7C7C" d="M536.538,204.634c-17.357-14.483-41.907-27.431-70.996-37.445c-5.833-2.008-11.873-3.906-18.087-5.7
	c1.025-4.176,1.964-8.293,2.796-12.334c13.938-67.659,4.042-120.389-25.825-137.613c-7.3-4.209-15.934-6.344-25.662-6.344
	c-28.024,0-63.533,17.47-99.984,49.192c-4.659,4.055-9.326,8.344-13.99,12.837c-3.112-2.979-6.216-5.854-9.307-8.599
	C237.629,25.019,199.103,5.743,169.78,5.743c-10.042,0-18.931,2.198-26.419,6.533c-14.656,8.484-24.612,25.792-28.792,50.053
	c-3.838,22.277-2.744,50.011,3.163,80.203c1.19,6.084,2.582,12.293,4.151,18.601c-7.177,2.042-14.122,4.223-20.791,6.548
	c-61.029,21.278-97.464,53.781-97.464,86.947c0,17.323,10.152,35.175,29.358,51.622c18.07,15.475,43.442,29.062,73.372,39.293
	c4.885,1.67,9.954,3.251,15.18,4.752c-1.688,6.814-3.158,13.506-4.401,20.053c-12.056,63.496-2.102,111.298,26.629,127.867
	c7.566,4.363,16.589,6.575,26.82,6.575c29.162,0,66.798-18.278,103.257-50.148c3.893-3.402,7.801-7.011,11.72-10.793
	c5.065,4.871,10.135,9.492,15.19,13.845c35.451,30.508,70.188,47.309,97.813,47.309c9.955,0,18.792-2.193,26.265-6.52
	c14.993-8.681,25.355-26.409,29.968-51.271c4.34-23.392,3.387-52.156-2.755-83.186c-0.971-4.904-2.1-9.918-3.366-15.021
	c3.559-1.051,7.047-2.135,10.443-3.26c65.573-21.726,106.309-56.642,106.309-91.118C565.43,237.693,555.439,220.405,536.538,204.634
	z M398.764,29.198c5.467,0,10.065,1.055,13.672,3.135c8.706,5.02,15.152,17.665,18.151,35.606
	c3.485,20.845,2.156,47.254-3.842,76.373c-0.754,3.658-1.604,7.386-2.525,11.167c-23.362-5.391-48.688-9.386-75.138-11.866
	c-15.471-22.015-31.485-42.01-47.479-59.261c4.312-4.147,8.627-8.111,12.932-11.857C345.688,45.383,377.175,29.198,398.764,29.198z
	 M362.927,300.339c-8.833,15.317-17.828,29.834-26.914,43.476c-16.682,1.197-33.917,1.813-51.484,1.813
	c-17.574,0-34.542-0.532-50.807-1.576c-9.596-13.981-18.836-28.589-27.516-43.581c-8.683-15-16.692-30.144-23.959-45.226
	c7.287-15.205,15.282-30.411,23.884-45.328c8.657-15.011,17.775-29.51,27.211-43.336c16.808-1.283,33.971-1.953,51.187-1.953
	c17.366,0,34.517,0.658,51.243,1.931c9.294,13.714,18.367,28.179,27.079,43.228c8.861,15.306,16.946,30.351,24.229,45.039
	C379.781,269.877,371.704,285.119,362.927,300.339z M400.034,282.505c7.546,17.181,13.863,33.731,18.87,49.466
	c-16.275,3.713-33.868,6.707-52.416,8.937c5.804-9.205,11.554-18.735,17.229-28.577C389.45,302.391,394.892,292.43,400.034,282.505z
	 M285.502,409.438c-11.371-12.287-22.719-25.877-33.775-40.436c10.695,0.414,21.636,0.625,32.802,0.625
	c11.468,0,22.809-0.261,33.971-0.764C307.528,383.785,296.49,397.36,285.502,409.438z M203.087,341.389
	c-18.458-2.053-35.777-4.839-51.768-8.332c4.978-16.027,11.102-32.688,18.215-49.582c5.027,9.705,10.33,19.396,15.901,29.021
	C191.142,322.352,197.04,331.993,203.087,341.389z M169.468,226.979c-6.969-16.524-12.947-32.809-17.837-48.58
	c16.039-3.577,33.141-6.504,50.902-8.728c-5.895,9.198-11.639,18.627-17.192,28.255
	C179.778,207.571,174.485,217.272,169.468,226.979z M284.789,101.502c11.059,11.984,22.146,25.377,33.061,39.916
	c-10.996-0.52-22.119-0.79-33.321-0.79c-11.127,0-22.169,0.26-33.08,0.763C262.336,127.033,273.514,113.662,284.789,101.502z
	 M383.621,197.762c-5.562-9.606-11.274-18.987-17.102-28.111c17.89,2.259,35.065,5.264,51.241,8.96
	c-4.84,15.5-10.874,31.723-17.979,48.365C394.704,217.345,389.316,207.6,383.621,197.762z M141.286,137.923
	c-5.353-27.357-6.413-52.088-3.065-71.52c2.891-16.776,8.986-28.622,17.165-33.357c3.787-2.192,8.629-3.304,14.395-3.304
	c23.183,0,56.74,17.507,89.766,46.832c2.798,2.484,5.609,5.086,8.428,7.779c-16.348,17.555-32.467,37.507-47.834,59.193
	c-26.418,2.433-51.686,6.358-75.001,11.657C143.683,149.342,142.391,143.573,141.286,137.923z M114.12,322.833
	c-27.082-9.258-49.74-21.295-65.523-34.812c-13.522-11.58-20.969-23.438-20.969-33.394c0-24.812,40.866-50.165,81.365-64.285
	c6.162-2.148,12.625-4.172,19.341-6.074c7.04,22.901,16.265,46.796,27.362,70.907c-11.285,24.525-20.633,48.788-27.736,71.999
	C123.194,325.8,118.573,324.355,114.12,322.833z M170.585,480.79c-5.968,0-10.958-1.133-14.831-3.365
	c-21.493-12.396-23.041-60.463-15.04-102.601c1.148-6.047,2.521-12.27,4.106-18.635c22.887,5.072,48.285,8.75,75.681,10.961
	c15.525,21.869,31.776,41.947,48.235,59.586c-3.577,3.446-7.143,6.732-10.691,9.835C226.372,464.26,193.676,480.79,170.585,480.79z
	 M428.501,368.686c12.193,61.606,0.412,99.701-15.694,109.025c-3.771,2.183-8.562,3.29-14.239,3.29
	c-10.203,0-38.633-4.044-82.159-41.5c-4.67-4.019-9.38-8.321-14.108-12.879c15.765-17.225,31.573-37.299,47.115-59.817
	c27.197-2.425,52.866-6.375,76.049-11.724C426.605,359.705,427.622,364.243,428.501,368.686z M451.572,322.965
	c-3.065,1.016-6.212,1.996-9.421,2.948c-7.066-22.41-16.621-46.312-28.461-71.215c11.211-24.175,20.431-47.814,27.326-70.09
	c5.741,1.663,11.323,3.418,16.712,5.273c26.358,9.074,48.294,20.547,63.433,33.179c13.07,10.906,20.269,22.117,20.269,31.567
	C541.43,273.202,513.311,302.509,451.572,322.965z"/>
</svg>
